<svg width="52" height="56" viewBox="0 0 52 56" fill="none" xmlns="http://www.w3.org/2000/svg">
<path d="M33.2198 16.2667C35.7886 13.3181 37.0855 11.1066 37.0855 9.63223C37.0855 8.57562 36.7114 7.71559 35.9632 7.05214C35.1901 6.38869 34.1925 6.04468 32.9704 6.04468C31.7484 6.04468 30.7508 6.38869 30.0026 7.05214C29.2544 7.71559 28.8803 8.60019 28.8803 9.73052V10.6643C28.8803 11.3031 28.5062 11.6717 27.8577 11.6717H26.0371V24.351C27.2592 23.0241 28.7556 21.3778 30.4764 19.412L33.2198 16.2667Z" fill="#286EFF"/>
<path d="M42.6721 10.7627C42.323 12.8513 41.076 15.1857 38.9561 17.7412C38.0333 18.8961 36.9359 20.1984 35.6889 21.5991C34.417 22.9997 33.17 24.4003 31.8981 25.7764L30.9254 26.833H42.4227C43.0712 26.833 43.4453 27.2015 43.4453 27.8404V30.7154C43.4453 31.3543 43.0712 31.7228 42.4227 31.7228L26.0122 31.6983L25.9873 56.0002C40.3278 56.0002 51.9747 44.5496 51.9997 30.4205C52.0246 22.5328 48.3834 15.456 42.6721 10.7627Z" fill="#286EFF"/>
<path d="M24.2167 31.7228C23.5682 31.7228 23.1941 31.3542 23.1941 30.7153V27.9141C23.1941 27.5209 23.3438 27.1769 23.6431 26.8821C24.2416 26.2678 25.0397 25.4323 26.0124 24.3757V11.6473H24.2167C23.5682 11.6473 23.1941 11.2787 23.1941 10.6398V8.99345C23.244 7.39625 23.7179 5.99563 24.5908 4.81616C24.9898 4.27557 25.4637 3.78413 26.0124 3.34183V0.0245719L0.0498791 0L0 51.2086L25.9874 51.2332L26.0124 31.7228H24.2167Z" fill="#6DB9FF"/>
</svg>
